<svg xmlns="http://www.w3.org/2000/svg" xmlns:xlink="http://www.w3.org/1999/xlink" width="14" height="14" viewBox="0 0 14 14">
  <defs>
    <clipPath id="clip-path">
      <rect id="Rectangle_6793" data-name="Rectangle 6793" width="14" height="14" transform="translate(1839.564 116.564)" fill="#fff" stroke="#4949dc" stroke-width="1"/>
    </clipPath>
  </defs>
  <g id="Mask_Group_5" data-name="Mask Group 5" transform="translate(-1839.564 -116.564)" clip-path="url(#clip-path)">
    <g id="settings" transform="translate(1840.547 117.547)">
      <circle id="Ellipse_3" data-name="Ellipse 3" cx="1.641" cy="1.641" r="1.641" transform="translate(4.376 4.376)" fill="none" stroke="#4949dc" stroke-linecap="round" stroke-linejoin="round" stroke-width="0.833"/>
      <path id="Path_7" data-name="Path 7" d="M10.481,8.075a.9.9,0,0,0,.181,1l.033.033a1.095,1.095,0,1,1-1.548,1.548l-.033-.033a.91.91,0,0,0-1.543.645v.093a1.094,1.094,0,1,1-2.188,0v-.049a.9.9,0,0,0-.591-.826.9.9,0,0,0-1,.181l-.033.033A1.095,1.095,0,1,1,2.216,9.147l.033-.033A.91.91,0,0,0,1.6,7.571H1.511a1.094,1.094,0,1,1,0-2.188H1.56a.9.9,0,0,0,.826-.591.9.9,0,0,0-.181-1l-.033-.033A1.095,1.095,0,1,1,3.721,2.216l.033.033a.9.9,0,0,0,1,.181h.044A.9.9,0,0,0,5.34,1.6V1.511a1.094,1.094,0,0,1,2.188,0V1.56a.91.91,0,0,0,1.543.645L9.1,2.173a1.095,1.095,0,1,1,1.548,1.548l-.033.033a.9.9,0,0,0-.181,1v.044a.9.9,0,0,0,.826.547h.093a1.094,1.094,0,1,1,0,2.188h-.049A.9.9,0,0,0,10.481,8.075Z" transform="translate(-0.417 -0.417)" fill="none" stroke="#4949dc" stroke-linecap="round" stroke-linejoin="round" stroke-width="0.833"/>
    </g>
  </g>
</svg>
