<?xml version="1.0" encoding="utf-8"?>
<!-- Generator: Adobe Illustrator 25.0.0, SVG Export Plug-In . SVG Version: 6.00 Build 0)  -->
<svg version="1.1" id="Layer_1" xmlns="http://www.w3.org/2000/svg" xmlns:xlink="http://www.w3.org/1999/xlink" x="0px" y="0px"
	 viewBox="0 0 1200 1200" style="enable-background:new 0 0 1200 1200;" xml:space="preserve">
<style type="text/css">
	.st0{fill:#444DD3;}
	.st1{fill:#3CAEE0;}
	.st2{fill:#384259;}
	.st3{fill:#02DADA;}
</style>
<g>
	<path class="st0" d="M417.6,769.6l-167.9,241.2c-58.1-16.5-178-53.3-185-123.8c-0.3-10.6,2.3-21.1,7.5-30.4
		c1.3-2.3,3.3-5.5,4.8-7.5l158.3-227.5L417.6,769.6z"/>
	<path class="st1" d="M278.6,1018.3c-9.2-2.1-19.7-4.9-28.9-7.2c67-96.3,213.2-306.6,278.9-401.1l182.6,148.2l-202.6,291
		C431.2,1045.7,354.2,1035.3,278.6,1018.3z"/>
	<path class="st2" d="M76.9,848.9c-7.3,9.8-11.5,21.5-12.2,33.7V148.4l319.2,259.4l36.6-52.8l182.5,148.2l36.6-52.8l182.6,148.3
		l-111,159.5L528.6,610.1l-111,159.5L235.1,621.4L76.9,848.9z"/>
	<path class="st3" d="M541.2,1050.8c-10.2-0.4-22.4-0.9-32.6-1.5c173.7-249.5,451.4-649,626.8-900.9v736.1
		c-0.1,4.4-0.7,8.8-1.7,13.1c-4.4,17.5-16.7,31.9-30,43.6C980.5,1039.9,697,1056,541.2,1050.8z"/>
</g>
</svg>
